<?xml version="1.0" encoding="utf-8"?>
<!-- Generator: Adobe Illustrator 17.0.0, SVG Export Plug-In . SVG Version: 6.00 Build 0)  -->
<!DOCTYPE svg PUBLIC "-//W3C//DTD SVG 1.1//EN" "http://www.w3.org/Graphics/SVG/1.1/DTD/svg11.dtd">
<svg version="1.1" id="Livello_1" xmlns="http://www.w3.org/2000/svg" xmlns:xlink="http://www.w3.org/1999/xlink" x="0px" y="0px"
	 width="880px" height="56px" viewBox="-291 0 880 56" enable-background="new -291 0 880 56" xml:space="preserve">
<g>
	
		<linearGradient id="SVGID_1_" gradientUnits="userSpaceOnUse" x1="120" y1="-270.113" x2="985.4619" y2="-270.113" gradientTransform="matrix(1 0 0 -1 -411 -231.5)">
		<stop  offset="0" style="stop-color:#C99E67;stop-opacity:0"/>
		<stop  offset="0.15" style="stop-color:#C99E67"/>
	</linearGradient>
	<path fill="url(#SVGID_1_)" d="M552.409,26.443c-2.078,0.03-4.022,0.261-5.822,0.631c-0.185-0.998-0.635-1.918-1.405-2.674
		c-4.598-4.513-13.099-2.156-19.411,2.044c-6.863,4.566-12.867,7.643-19.772,7.643H-291v1.003h797c7.611,0,12.318-1.919,19.466-6.6
		c6.916-4.529,14.205-6.364,17.512-3.496c0.908,0.787,1.378,1.672,1.517,2.591c-9.482,2.692-13.91,9.269-9.558,9.97
		c6.234,1.004,11.296-4.201,11.719-8.789c1.328-0.203,2.765-0.313,4.339-0.267c11.199,0.324,17.298,4.375,18.37,10.3
		c1.078,5.958-4.372,12.165-11.258,13.628c-6.969,1.481-9.054-0.711-9.352-3.377c-0.255-2.28,1.906-3.911-0.119-5.866
		c-1.938-1.871-7.644-0.625-7.535,4.783s7.927,8.035,14.802,7.127c7.5-0.99,20.087-7.31,18.406-17.065
		C572.88,29.732,563.598,26.284,552.409,26.443z M542.026,32.991c-1.984,1.911-4.702,3.281-6.135,2.607
		c-0.803-0.378,2.004-4.619,8.514-6.361C544.082,30.542,543.214,31.846,542.026,32.991z"/>
</g>
<ellipse fill="#C99E67" cx="565.5" cy="19.549" rx="2.5" ry="2.506"/>
<circle fill="#C99E67" cx="588.5" cy="40.602" r="0.501"/>
<circle fill="#C99E67" cx="584.5" cy="0.501" r="0.501"/>
<circle fill="#C99E67" cx="544" cy="12.03" r="1.003"/>
<circle fill="#C99E67" cx="567" cy="5.013" r="1.003"/>
<circle fill="#C99E67" cx="585" cy="28.07" r="1.003"/>
<circle fill="#C99E67" cx="571.5" cy="16.541" r="1.504"/>
<circle fill="#C99E67" cx="560.5" cy="12.531" r="1.504"/>
</svg>
